{"accessors" : [{"bufferView" : 0, "byteOffset" : 0, "componentType" : 5123, "count" : 43296, "type" : "SCALAR", "max" : [7644], "min" : [0]}, {"bufferView" : 1, "byteOffset" : 0, "componentType" : 5126, "count" : 7645, "type" : "VEC3", "max" : [49.355594635009766, 324.82281494140625, 48.81061553955078], "min" : [-48.81061553955078, 35.66979217529297, -48.81061553955078], "name" : "POSITION"}, {"bufferView" : 1, "byteOffset" : 12, "componentType" : 5126, "count" : 7645, "type" : "VEC2", "max" : [100000, 1.1777739524841309], "min" : [-0.18739500641822815, -0.17777395248413086], "name" : "TEXCOORD_0"}, {"bufferView" : 1, "byteOffset" : 20, "componentType" : 5126, "count" : 7645, "type" : "VEC3", "max" : [1.0000044107437134, 0.9290684461593628, 1.0000044107437134], "min" : [-1.0000044107437134, -1.0000044107437134, -1.0000044107437134], "name" : "NORMAL"}, {"bufferView" : 0, "byteOffset" : 86592, "componentType" : 5123, "count" : 27648, "type" : "SCALAR", "max" : [5539], "min" : [0]}, {"bufferView" : 2, "byteOffset" : 0, "componentType" : 5126, "count" : 5540, "type" : "VEC3", "max" : [21.292802810668945, 349.2506103515625, 21.814159393310547], "min" : [-21.874845504760742, 323.2506103515625, -21.35348892211914], "name" : "POSITION"}, {"bufferView" : 2, "byteOffset" : 12, "componentType" : 5126, "count" : 5540, "type" : "VEC2", "max" : [1, 1], "min" : [-0.007174000144004822, -0.025552034378051758], "name" : "TEXCOORD_0"}, {"bufferView" : 2, "byteOffset" : 20, "componentType" : 5126, "count" : 5540, "type" : "VEC3", "max" : [1.0000044107437134, 1.0000044107437134, 1.0000044107437134], "min" : [-1.0000044107437134, -1.0000044107437134, -1.0000044107437134], "name" : "NORMAL"}, {"bufferView" : 0, "byteOffset" : 141888, "componentType" : 5123, "count" : 9600, "type" : "SCALAR", "max" : [1680], "min" : [0]}, {"bufferView" : 3, "byteOffset" : 0, "componentType" : 5126, "count" : 1681, "type" : "VEC3", "max" : [276.4895935058594, 699.1165771484375, 575.948486328125], "min" : [-374.8534851074219, 35.81111526489258, -575.948486328125], "name" : "POSITION"}, {"bufferView" : 3, "byteOffset" : 12, "componentType" : 5126, "count" : 1681, "type" : "VEC2", "max" : [1, 1], "min" : [0, 0], "name" : "TEXCOORD_0"}, {"bufferView" : 3, "byteOffset" : 20, "componentType" : 5126, "count" : 1681, "type" : "VEC3", "max" : [0, 1.0000044107437134, 0], "min" : [-1.0000044107437134, 0, 0], "name" : "NORMAL"}], "asset" : {"generator" : "Aspose.3D 24.6.0", "version" : "2.0"}, "buffers" : [{"uri" : "data:application/octet-stream;base64,", "byteLength" : 636816}], "bufferViews" : [{"buffer" : 0, "byteOffset" : 0, "byteLength" : 161088, "target" : 34963}, {"buffer" : 0, "byteOffset" : 161092, "byteLength" : 244640, "byteStride" : 32, "target" : 34962}, {"buffer" : 0, "byteOffset" : 405736, "byteLength" : 177280, "byteStride" : 32, "target" : 34962}, {"buffer" : 0, "byteOffset" : 583020, "byteLength" : 53792, "byteStride" : 32, "target" : 34962}], "meshes" : [{"primitives" : [{"attributes" : {"POSITION" : 1, "TEXCOORD_0" : 2, "NORMAL" : 3}, "indices" : 0, "mode" : 4}], "name" : ""}, {"primitives" : [{"attributes" : {"POSITION" : 5, "TEXCOORD_0" : 6, "NORMAL" : 7}, "indices" : 4, "mode" : 4}], "name" : ""}, {"primitives" : [{"attributes" : {"POSITION" : 9, "TEXCOORD_0" : 10, "NORMAL" : 11}, "indices" : 8, "mode" : 4}], "name" : ""}], "nodes" : [{"mesh" : 0, "name" : "Cylinder"}, {"mesh" : 1, "name" : "Cylinder_1"}, {"mesh" : 2, "name" : "Plane"}], "scene" : 0, "scenes" : [{"nodes" : [0, 1, 2]}]}